<?xml version="1.0" encoding="utf-8"?>
<!-- Generator: Adobe Illustrator 19.2.1, SVG Export Plug-In . SVG Version: 6.00 Build 0)  -->
<!DOCTYPE svg PUBLIC "-//W3C//DTD SVG 1.1//EN" "http://www.w3.org/Graphics/SVG/1.1/DTD/svg11.dtd">
<svg version="1.1" id="Layer_1" xmlns="http://www.w3.org/2000/svg" xmlns:xlink="http://www.w3.org/1999/xlink" x="0px" y="0px"
	 viewBox="0 0 50 50" style="enable-background:new 0 0 50 50;" xml:space="preserve">
<style type="text/css">
	.st0{fill:#FFFFFF; fill-opacity:0;}
	.st1{fill:#808285;}
</style>
<rect x="0" class="st0" width="50" height="50"/>
<rect x="-20.9" y="25.3" transform="matrix(0.7071 0.7071 -0.7071 0.7071 25.8192 -8.083)" class="st1" width="87.2" height="3.6"/>
<rect x="-20.9" y="15.3" transform="matrix(0.7071 0.7071 -0.7071 0.7071 18.7481 -11.012)" class="st1" width="87.2" height="3.6"/>
<rect x="-20.9" y="5.3" transform="matrix(0.7071 0.7071 -0.7071 0.7071 11.677 -13.9409)" class="st1" width="87.2" height="3.6"/>
<rect x="-20.9" y="-4.7" transform="matrix(0.7071 0.7071 -0.7071 0.7071 4.606 -16.8698)" class="st1" width="87.2" height="3.6"/>
<rect x="-20.9" y="-14.7" transform="matrix(0.7071 0.7071 -0.7071 0.7071 -2.4651 -19.7988)" class="st1" width="87.2" height="3.6"/>
<rect x="-20.9" y="-24.7" transform="matrix(0.7071 0.7071 -0.7071 0.7071 -9.5362 -22.7277)" class="st1" width="87.2" height="3.6"/>
<rect x="-20.9" y="35.3" transform="matrix(0.7071 0.7071 -0.7071 0.7071 32.8903 -5.1541)" class="st1" width="87.2" height="3.6"/>
<rect x="-20.9" y="45.3" transform="matrix(0.7071 0.7071 -0.7071 0.7071 39.9613 -2.2252)" class="st1" width="87.2" height="3.6"/>
<rect x="-20.9" y="55.3" transform="matrix(0.7071 0.7071 -0.7071 0.7071 47.0324 0.7038)" class="st1" width="87.2" height="3.6"/>
<rect x="-20.9" y="65.3" transform="matrix(0.7071 0.7071 -0.7071 0.7071 54.1035 3.6327)" class="st1" width="87.2" height="3.6"/>
</svg>
